<svg width="336" height="321" viewBox="0 0 336 321" fill="none" xmlns="http://www.w3.org/2000/svg">
<path d="M184.216 10.8933L222.113 87.364C224.748 92.6826 229.843 96.368 235.738 97.2195L320.481 109.483C335.326 111.633 341.248 129.794 330.511 140.215L269.191 199.739C264.929 203.878 262.981 209.846 263.99 215.688L278.463 299.738C281 314.459 265.483 325.682 252.208 318.737L176.415 279.057C171.145 276.3 164.844 276.3 159.573 279.057L83.78 318.737C70.5053 325.689 54.9879 314.459 57.525 299.738L71.9982 215.688C73.0075 209.846 71.059 203.878 66.7977 199.739L5.47776 140.215C-5.25972 129.787 0.662713 111.626 15.5073 109.483L100.251 97.2195C106.145 96.368 111.24 92.6826 113.876 87.364L151.772 10.8933C158.403 -2.5009 177.579 -2.5009 184.216 10.8933Z" fill="#ED8A19"/>
</svg>
